<?xml version="1.0" encoding="utf-8"?>
<!-- Generator: Adobe Illustrator 23.0.1, SVG Export Plug-In . SVG Version: 6.00 Build 0)  -->
<svg version="1.1" id="Capa_1" xmlns="http://www.w3.org/2000/svg" xmlns:xlink="http://www.w3.org/1999/xlink" x="0px" y="0px"
	 viewBox="0 0 612 612" style="enable-background:new 0 0 612 612;" xml:space="preserve">
<g>
	<g>
		<path d="M306,517.8c-73.1,0-137.6-37.1-175.7-93.4H75.7c43,83.4,130,140.5,230.3,140.5c135.1,0,246-103.4,257.9-235.4H612
			l-70.6-94.2l-70.6,94.2h45.8C504.9,435.5,415.1,517.8,306,517.8z"/>
		<path d="M522.8,164.5h-59.2l-1.7-1.9c-38.7-42.1-94.2-68.4-155.9-68.4c-100.8,0-185.2,70.4-206.6,164.8h41.8l-70.6,94.2L0,258.9
			h51.3C73.5,138.4,179.1,47.1,306,47.1C396.8,47.1,476.6,93.8,522.8,164.5z"/>
	</g>
</g>
</svg>
