<svg id="Layer_1" data-name="Layer 1" xmlns="http://www.w3.org/2000/svg" viewBox="0 0 546.95 298.48"><defs><style>.cls-1{fill:none;stroke:#489bd5;stroke-miterlimit:10;stroke-width:4px;}.cls-2{fill:#489bd5;}</style></defs><title>Logo</title><path class="cls-1" d="M84.43,133.54" transform="translate(-9.99 -133.54)"/><polygon class="cls-2" points="192.75 298.48 118.31 298.48 0 0 74.44 0 155.8 205.26 192.75 298.48"/><path class="cls-1" d="M128.29,433.39" transform="translate(-9.99 -133.54)"/><path class="cls-1" d="M128.83,432" transform="translate(-9.99 -133.54)"/><polygon class="cls-2" points="309.84 1.03 199.01 284.05 161.75 190.02 235.28 1.03 309.84 1.03"/><path class="cls-1" d="M319.83,134.57" transform="translate(-9.99 -133.54)"/><polygon class="cls-2" points="428.08 298.48 354.36 298.48 354.29 298.28 279.79 110.32 316.65 17.33 391.15 205.28 428.08 298.48"/><path class="cls-1" d="M482.5,133.54" transform="translate(-9.99 -133.54)"/><polygon class="cls-2" points="546.95 0 435.2 281.96 397.98 188.05 472.51 0 546.95 0"/><path class="cls-1" d="M364.19,432" transform="translate(-9.99 -133.54)"/><path class="cls-1" d="M289.77,243.86" transform="translate(-9.99 -133.54)"/><path class="cls-1" d="M326.67,150.78" transform="translate(-9.99 -133.54)"/></svg>