<?xml version="1.0" encoding="utf-8"?>
<!-- Generator: Adobe Illustrator 23.0.1, SVG Export Plug-In . SVG Version: 6.00 Build 0)  -->
<svg version="1.1" id="Layer_1" xmlns="http://www.w3.org/2000/svg" xmlns:xlink="http://www.w3.org/1999/xlink" x="0px" y="0px"
	 viewBox="0 0 512 512" style="enable-background:new 0 0 512 512;" xml:space="preserve">
<style type="text/css">
	.st0{fill:#707070;}
</style>
<g>
	<g>
		<path class="st0" d="M491.3,235.3H20.7C9.3,235.3,0,244.6,0,256c0,11.4,9.3,20.7,20.7,20.7h470.6c11.4,0,20.7-9.3,20.7-20.7
			C512,244.6,502.7,235.3,491.3,235.3z"/>
	</g>
</g>
<g>
	<g>
		<path class="st0" d="M49.9,256L211.8,94.1c8.1-8.1,8.1-21.2,0-29.2c-8.1-8.1-21.2-8.1-29.2,0L6.1,241.4c-8.1,8.1-8.1,21.2,0,29.2
			l176.5,176.5c4,4,9.3,6.1,14.6,6.1s10.6-2,14.6-6.1c8.1-8.1,8.1-21.2,0-29.2L49.9,256z"/>
	</g>
</g>
</svg>
