<?xml version="1.0" encoding="utf-8"?>
<!-- Generator: Adobe Illustrator 23.0.1, SVG Export Plug-In . SVG Version: 6.00 Build 0)  -->
<svg version="1.1" id="Layer_1" xmlns="http://www.w3.org/2000/svg" xmlns:xlink="http://www.w3.org/1999/xlink" x="0px" y="0px"
	 viewBox="0 0 387 387" style="enable-background:new 0 0 387 387;" xml:space="preserve">
<style type="text/css">
	.st0{fill:#A7A7A7;stroke:#A7A7A7;stroke-width:18;stroke-miterlimit:10;}
</style>
<path class="st0" d="M369.6,17.4L369.6,17.4c-5.9-5.9-15.4-5.9-21.2,0L194.6,171.2L40.8,17.4c-5.9-5.9-15.4-5.9-21.2,0l0,0
	c-5.9,5.9-5.9,15.4,0,21.2l153.8,153.8L19.6,346.2c-5.9,5.9-5.9,15.4,0,21.2l0,0c5.9,5.9,15.4,5.9,21.2,0l153.8-153.8l153.8,153.8
	c5.9,5.9,15.4,5.9,21.2,0l0,0c5.9-5.9,5.9-15.4,0-21.2L215.8,192.4L369.6,38.6C375.5,32.8,375.5,23.3,369.6,17.4z"/>
</svg>
