<?xml version="1.0" encoding="iso-8859-1"?>
<!-- Generator: Adobe Illustrator 19.0.0, SVG Export Plug-In . SVG Version: 6.00 Build 0)  -->
<svg version="1.1" id="Layer_1" xmlns="http://www.w3.org/2000/svg" xmlns:xlink="http://www.w3.org/1999/xlink" x="0px" y="0px"
	 viewBox="0 0 511.999 511.999" style="enable-background:new 0 0 511.999 511.999;" xml:space="preserve">
<g>
	<g>
		<path d="M343.049,379.255c-3.291-29.19-29.7-50.255-58.903-46.973c-14.14,1.593-26.814,8.598-35.685,19.722
			c-8.872,11.125-12.88,25.04-11.287,39.18s8.597,26.814,19.722,35.685c9.528,7.598,21.102,11.629,33.111,11.629
			c2.013,0,4.038-0.113,6.068-0.341C325.264,434.868,346.337,408.445,343.049,379.255z M292.338,404.993
			c-5.285,0.597-10.479-0.903-14.634-4.216c-4.156-3.314-6.772-8.047-7.368-13.329c-0.595-5.282,0.903-10.479,4.216-14.635
			c3.314-4.156,8.048-6.772,13.33-7.368c0.754-0.086,1.502-0.127,2.243-0.127c9.983,0,18.616,7.523,19.761,17.672
			C311.113,393.895,303.242,403.765,292.338,404.993z"/>
	</g>
</g>
<g>
	<g>
		<path d="M427.083,271.855c-12.048-7.571-26.326-9.995-40.196-6.83c-13.873,3.167-25.683,11.546-33.254,23.595
			c-15.627,24.873-8.107,57.822,16.764,73.449c8.785,5.52,18.575,8.151,28.257,8.151c17.729,0,35.085-8.829,45.193-24.916
			C459.476,320.432,451.956,287.482,427.083,271.855z M415.591,327.55c-5.837,9.291-18.146,12.101-27.437,6.262
			c-9.291-5.837-12.1-18.145-6.262-27.436c2.828-4.501,7.24-7.631,12.421-8.814c1.484-0.339,2.981-0.506,4.466-0.506
			c3.702,0,7.338,1.039,10.548,3.057C418.619,305.951,421.429,318.259,415.591,327.55z"/>
	</g>
</g>
<g>
	<g>
		<path d="M240.005,84.776c-7.57-12.049-19.38-20.429-33.253-23.594c-13.874-3.166-28.15-0.74-40.197,6.829
			c-12.049,7.571-20.427,19.38-23.594,33.253c-3.166,13.873-0.741,28.149,6.83,40.196c10.111,16.089,27.465,24.917,45.194,24.917
			c9.679,0,19.473-2.632,28.256-8.152C248.112,142.597,255.633,109.648,240.005,84.776z M205.485,129.966
			c-9.292,5.838-21.599,3.029-27.437-6.263c-2.828-4.499-3.733-9.831-2.551-15.013c1.182-5.182,4.313-9.594,8.814-12.421
			c3.212-2.018,6.847-3.058,10.549-3.058c1.485,0,2.982,0.167,4.466,0.506c5.182,1.183,9.592,4.313,12.42,8.813
			C217.585,111.821,214.776,124.129,205.485,129.966z"/>
	</g>
</g>
<g>
	<g>
		<path d="M132.605,168.812c-14.136-1.593-28.054,2.415-39.18,11.288c-11.125,8.872-18.129,21.545-19.722,35.685
			c-1.594,14.14,2.415,28.054,11.287,39.18c8.873,11.125,21.545,18.129,35.685,19.722c2.019,0.228,4.02,0.338,6.005,0.338
			c26.724-0.002,49.837-20.139,52.898-47.311C182.866,198.524,161.795,172.102,132.605,168.812z M146.415,223.977
			c-1.228,10.904-11.101,18.771-22.003,17.546c-5.282-0.595-10.016-3.21-13.33-7.366c-3.314-4.156-4.811-9.353-4.216-14.635
			s3.212-10.015,7.368-13.33c3.559-2.838,7.882-4.344,12.368-4.344c0.752,0,1.507,0.042,2.266,0.128
			C139.772,203.204,147.644,213.075,146.415,223.977z"/>
	</g>
</g>
<g>
	<g>
		<path d="M459.756,210.961c-17.564-15.225-34.678-26.292-49.862-36.036c17.412-19.373,35.846-40.876,52.508-62.037
			c17.476-22.193,30.449-40.843,38.56-55.43c5.319-9.567,19.447-34.978,4.092-50.335c-15.355-15.355-40.767-1.228-50.335,4.09
			c-14.587,8.111-33.238,21.083-55.432,38.557c-21.19,16.683-42.72,35.14-62.11,52.569c-9.802-15.277-20.927-32.528-36.276-50.236
			c-27.521-31.751-65.732-50.16-107.591-51.838c-41.849-1.685-81.349,13.598-111.287,43.01c-0.785,0.772-1.567,1.549-2.336,2.323
			C28.189,97.4-0.11,165.983,0,238.715c0.111,72.729,28.617,141.228,80.266,192.878c51.65,51.65,120.148,80.157,192.879,80.267
			c0.141,0,0.284,0,0.426,0c72.572,0,140.99-28.289,192.686-79.68c0.776-0.772,1.549-1.548,2.327-2.341
			c29.411-29.939,44.687-69.461,43.011-111.287C509.918,276.693,491.507,238.484,459.756,210.961z M410.106,83.838
			c31.805-25.747,51.272-38.321,62.693-44.461c-6.142,11.421-18.715,30.886-44.465,62.691
			c-26.498,32.73-56.329,65.428-78.008,87.878l-28.102-28.103C344.672,140.167,377.369,110.339,410.106,83.838z M325.032,211.844
			c-6.922,4.938-13.75,9.481-19.079,12.597l-12.828-12.828l-5.386-5.386c3.116-5.33,7.657-12.158,12.594-19.083L325.032,211.844z
			 M444.79,406.44c-0.68,0.691-1.363,1.379-2.057,2.068c-45.406,45.139-105.464,69.98-169.164,69.98c-0.12,0-0.253,0-0.373,0
			c-63.834-0.097-123.97-25.132-169.331-70.491c-45.36-45.362-70.394-105.499-70.492-169.333
			c-0.097-63.835,24.756-124.044,69.989-169.546c0.677-0.683,1.361-1.361,2.046-2.035c23.296-22.887,54.022-34.78,86.563-33.471
			c32.557,1.305,62.286,15.635,83.709,40.35c14.005,16.157,24.092,31.88,33.847,47.086c0.913,1.424,1.813,2.827,2.707,4.214
			c-9.754,9.17-18.421,17.574-25.517,24.671l-0.692,0.692l-0.607,0.769c-5.345,6.774-20.5,26.477-28.871,42.369
			c-12.787,1.322-24.949,6.955-34.203,16.208c-14.17,14.17-17.888,27.262-21.483,39.924c-3.273,11.531-6.659,23.455-19.324,40.744
			l-0.283,0.385c-17.368-4.073-36.395,0.64-49.911,14.154c-10.062,10.062-15.603,23.44-15.603,37.669s5.541,27.607,15.603,37.67
			c10.386,10.384,24.027,15.577,37.669,15.577s27.283-5.192,37.669-15.577c10.062-10.062,15.603-23.44,15.603-37.669
			c0-9.544-2.504-18.699-7.182-26.733c26.349-2.124,69.128-8.308,87.101-26.28c9.254-9.254,14.89-21.416,16.21-34.205
			c15.892-8.373,35.591-23.532,42.362-28.88l0.766-0.605l0.691-0.691c7.114-7.114,15.541-15.804,24.736-25.586
			c1.267,0.815,2.545,1.635,3.842,2.467c15.205,9.754,30.928,19.839,47.082,33.843c24.716,21.424,39.046,51.153,40.35,83.71
			C479.552,352.412,467.666,383.154,444.79,406.44z M285.356,251.042c-0.259,5.689-2.606,11.053-6.747,15.195
			c-2.098,2.097-11.59,9.32-45.705,14.219c-2.57,0.369-5.106,0.699-7.577,0.993c3.687-8.52,5.777-15.883,7.638-22.439
			c3.083-10.854,4.941-17.406,12.976-25.44c4.142-4.142,9.506-6.487,15.195-6.747l12.11,12.11L285.356,251.042z M188.914,342.847
			c0,5.315-2.069,10.313-5.828,14.071c-7.76,7.759-20.383,7.759-28.143,0c-3.759-3.759-5.828-8.756-5.828-14.071
			c0-5.315,2.069-10.312,5.828-14.07c3.879-3.879,8.975-5.819,14.071-5.819s10.192,1.94,14.071,5.819
			C186.844,332.533,188.914,337.53,188.914,342.847z"/>
	</g>
</g>
<g>
</g>
<g>
</g>
<g>
</g>
<g>
</g>
<g>
</g>
<g>
</g>
<g>
</g>
<g>
</g>
<g>
</g>
<g>
</g>
<g>
</g>
<g>
</g>
<g>
</g>
<g>
</g>
<g>
</g>
</svg>
