<?xml version="1.0" encoding="iso-8859-1"?>
<!-- Generator: Adobe Illustrator 19.0.0, SVG Export Plug-In . SVG Version: 6.00 Build 0)  -->
<svg version="1.1" id="Capa_1" xmlns="http://www.w3.org/2000/svg" xmlns:xlink="http://www.w3.org/1999/xlink" x="0px" y="0px"
	 viewBox="0 0 512 512" style="enable-background:new 0 0 512 512;" xml:space="preserve">
<g>
	<g>
		<path d="M488.405,52.284l-28.72-28.719c-33.638-33.64-91.133-30.88-128.161,6.151L72.385,288.854l-2.592,2.591L0,511.967
			l220.523-69.792l261.729-261.73c17.711-17.71,28.22-40.614,29.594-64.493C513.258,91.423,504.933,68.811,488.405,52.284z
			 M46.07,465.897l43.785-138.345l94.56,94.56L46.07,465.897z M212.499,407.74L104.227,299.468l181.43-181.431L393.931,226.31
			L212.499,407.74z M481.875,114.228c-0.95,16.516-8.356,32.493-20.851,44.989l-45.865,45.865L306.886,96.809l45.865-45.865
			c25.326-25.326,63.771-28.082,85.705-6.151l28.72,28.719C477.568,83.903,482.787,98.364,481.875,114.228z"/>
	</g>
</g>
<g>
</g>
<g>
</g>
<g>
</g>
<g>
</g>
<g>
</g>
<g>
</g>
<g>
</g>
<g>
</g>
<g>
</g>
<g>
</g>
<g>
</g>
<g>
</g>
<g>
</g>
<g>
</g>
<g>
</g>
</svg>
