<svg height="512pt" viewBox="0 0 512 512" width="512pt" xmlns="http://www.w3.org/2000/svg"><path d="m285.9375 512h226.0625v-226.0625h-226.0625zm29.972656-196.089844h166.117188v166.117188h-166.117188zm0 0"/><path d="m389.839844 244.316406c67.359375 0 122.160156-54.800781 122.160156-122.160156 0-67.355469-54.800781-122.15625-122.160156-122.15625s-122.15625 54.800781-122.15625 122.160156 54.800781 122.15625 122.15625 122.15625zm0-214.34375c50.832031 0 92.1875 41.355469 92.1875 92.1875 0 50.832032-41.355469 92.183594-92.1875 92.183594-50.832032 0-92.183594-41.355469-92.183594-92.1875s41.355469-92.183594 92.183594-92.183594zm0 0"/><path d="m0 231.3125h262.703125l-131.351563-231.3125zm51.488281-29.972656 79.863281-140.640625 79.863282 140.640625zm0 0"/><path d="m63.648438 291.515625-63.648438 110.242187 63.648438 110.242188h127.296874l63.652344-110.242188-63.652344-110.246093h-127.296874zm109.992187 190.511719h-92.6875l-46.34375-80.269532 46.34375-80.273437h92.6875l46.34375 80.273437zm0 0"/></svg>