<?xml version="1.0" encoding="iso-8859-1"?>
<!-- Generator: Adobe Illustrator 19.0.0, SVG Export Plug-In . SVG Version: 6.00 Build 0)  -->
<svg version="1.1" id="Capa_1" xmlns="http://www.w3.org/2000/svg" xmlns:xlink="http://www.w3.org/1999/xlink" x="0px" y="0px"
	 viewBox="0 0 512 512" style="enable-background:new 0 0 512 512;" xml:space="preserve">
<g>
	<g>
		<path d="M0,15.671v136.155h80.073v-35.53c0-12.989,10.567-23.556,23.557-23.556h103.673v293.536c0,18.527-15.072,33.6-33.6,33.6
			h-32.992v76.454h231.283v-76.454h-32.992c-18.526,0-33.6-15.073-33.6-33.6V92.739H408.37c12.989,0,23.557,10.567,23.557,23.556
			v35.53H512V15.671H0z M482,121.825h-20.073v-5.53c0-29.531-24.025-53.556-53.557-53.556H275.402v323.536
			c0,35.069,28.53,63.6,63.6,63.6h2.992v16.454H170.711v-16.454h2.992c35.069,0,63.6-28.531,63.6-63.6V62.739H103.63
			c-29.531,0-53.557,24.025-53.557,53.556v5.53H30V45.671h452V121.825z"/>
	</g>
</g>
<g>
</g>
<g>
</g>
<g>
</g>
<g>
</g>
<g>
</g>
<g>
</g>
<g>
</g>
<g>
</g>
<g>
</g>
<g>
</g>
<g>
</g>
<g>
</g>
<g>
</g>
<g>
</g>
<g>
</g>
</svg>
