<?xml version="1.0" encoding="utf-8"?>
<!-- Generator: Adobe Illustrator 23.0.1, SVG Export Plug-In . SVG Version: 6.00 Build 0)  -->
<svg version="1.1" id="Layer_1" xmlns="http://www.w3.org/2000/svg" xmlns:xlink="http://www.w3.org/1999/xlink" x="0px" y="0px"
	 viewBox="0 0 486.8 486.8" style="enable-background:new 0 0 486.8 486.8;" xml:space="preserve">
<path d="M61.2,199.8L6.7,185.2l61.1,105.5l105.5-61.1l-83.1-22.2c15.3-73.5,75.5-133,154.1-143.4c48.1-6.4,95.9,6.3,134.5,35.9
	c38.6,29.5,63.3,72.3,69.7,120.4c6.4,48.1-6.3,95.9-35.9,134.5c-29.5,38.6-72.3,63.3-120.4,69.7l4,29.7
	c56.1-7.5,105.9-36.3,140.3-81.2c34.4-44.9,49.2-100.6,41.8-156.6c-3.7-28-12.8-54.5-26.6-78.3c-13.8-23.8-32.2-44.8-54.7-62
	c-44.9-34.4-100.6-49.2-156.6-41.8C149.4,46.4,79.6,114.9,61.2,199.8z"/>
</svg>
