<?xml version="1.0" encoding="utf-8"?>
<!-- Generator: Adobe Illustrator 23.0.1, SVG Export Plug-In . SVG Version: 6.00 Build 0)  -->
<svg version="1.1" id="Layer_1" xmlns="http://www.w3.org/2000/svg" xmlns:xlink="http://www.w3.org/1999/xlink" x="0px" y="0px"
	 viewBox="0 0 512 512" style="enable-background:new 0 0 512 512;" xml:space="preserve">
<style type="text/css">
	.st0{stroke:#000000;stroke-width:15;stroke-miterlimit:10;}
</style>
<g>
	<g>
		<path class="st0" d="M368.2,99H143.8C119.1,99,99,119.1,99,143.8v224.5c0,24.7,20.1,44.8,44.8,44.8h224.5
			c24.7,0,44.8-20.1,44.8-44.8V143.8C413,119.1,392.9,99,368.2,99z M387.6,368.2c0,10.7-8.7,19.4-19.4,19.4H143.8
			c-10.7,0-19.4-8.7-19.4-19.4V143.8c0-10.7,8.7-19.4,19.4-19.4h224.5c10.7,0,19.4,8.7,19.4,19.4V368.2z"/>
	</g>
</g>
</svg>
